<svg xmlns="http://www.w3.org/2000/svg" id="b" viewBox="0 0 374.47 194.69"><defs><style>.d{fill:#fff;stroke-width:0px;}</style></defs><g id="c"><path class="d" d="M306.96,165c.09,0,.18-.02.26-.03,1.63-.17,3.24-.35,4.84-.55.41-.05.83-.1,1.24-.15,1.65-.21,3.29-.43,4.92-.67.15-.02.31-.05.46-.07,1.5-.23,2.99-.46,4.47-.71.4-.07.8-.14,1.21-.2,1.58-.27,3.14-.55,4.69-.85.2-.04.39-.08.59-.12,1.4-.27,2.78-.55,4.14-.84.38-.08.77-.16,1.15-.24,1.5-.32,2.98-.65,4.44-.99.23-.05.45-.11.67-.16,1.29-.3,2.57-.62,3.84-.93.35-.09.71-.18,1.06-.27,1.42-.36,2.82-.72,4.19-1.1.22-.06.44-.12.66-.18.72-.2,1.44-.39,2.15-.59h0c8.4-2.37,15.99-4.91,22.52-7.33-6.97,1.72-14.52,3.38-22.52,4.82v-8.99c0-.79-.23-1.41-.68-1.86-.45-.45-1.07-.68-1.86-.68h-50.47c-.56,0-.84-.28-.84-.84v-17.55c0-.56.28-.84.84-.84h31.23c.79,0,1.41-.22,1.86-.68s.68-1.07.68-1.86v-21.94c0-.79-.23-1.41-.68-1.86-.45-.45-1.07-.68-1.86-.68h-31.23c-.56,0-.84-.28-.84-.84v-15.87c0-.56.28-.84.84-.84h50.47c.79,0,1.41-.22,1.86-.67s.68-1.07.68-1.86v-22.11c0-.79-.23-1.41-.68-1.86-.45-.45-1.07-.68-1.86-.68h-80.51c-.79,0-1.41.23-1.86.68-.45.45-.68,1.07-.68,1.86v101.76c-11.8-2.68-20.64-6.53-33.51-9.64l27.26-91.78c.22-.9.14-1.6-.25-2.11-.4-.51-1.04-.76-1.94-.76h-28.19c-1.46,0-2.36.73-2.7,2.19l-16.37,71.23c-.11.45-.28.68-.51.68s-.4-.22-.51-.68l-16.88-71.23c-.34-1.46-1.24-2.19-2.7-2.19h-28.86c-1.58,0-2.36.68-2.36,2.03,0,.34.06.62.17.84l25.46,86.6c-12.91-.09-23.04,1.51-31.71,3.83V53.86c0-.79-.23-1.41-.68-1.86-.45-.45-1.07-.68-1.86-.68h-26.67c-.79,0-1.41.23-1.86.68-.45.45-.68,1.07-.68,1.86v102.03c-6.54,2.13-13.43,3.7-21.65,3.95,3.16-2.4,5.83-5.2,7.98-8.42,3.82-5.74,5.74-12.38,5.74-19.92v-42.2c0-7.54-1.91-14.18-5.74-19.92-3.83-5.74-9.26-10.18-16.29-13.34-7.03-3.15-15.11-4.73-24.22-4.73H23.48c-.79,0-1.41.23-1.86.68-.45.45-.68,1.07-.68,1.86v102.96c-8.57,3.46-15.49,8.5-20.95,13.8,5.64-4.49,12.58-8.48,20.98-10.9,1.32-.38,2.68-.72,4.07-1.02.17-.04.34-.07.51-.1.52-.11,1.04-.21,1.57-.31.22-.04.45-.08.67-.11.48-.08.97-.16,1.46-.23.25-.04.5-.07.75-.1.48-.06.96-.12,1.44-.17.26-.03.53-.06.79-.08.49-.05.99-.09,1.49-.13.26-.02.52-.04.79-.06.54-.03,1.08-.06,1.63-.08.23,0,.46-.02.69-.03.69-.02,1.39-.03,2.1-.03.09,0,.18,0,.27,0,.81,0,1.62.02,2.45.05.19,0,.38.02.57.03.63.03,1.26.06,1.9.11.29.02.59.05.88.07.55.04,1.09.09,1.65.15.33.03.67.07,1.01.11.53.06,1.06.13,1.59.2.35.05.71.1,1.07.15.53.08,1.07.16,1.6.25.36.06.72.12,1.09.19.55.1,1.11.21,1.67.32.35.07.7.14,1.06.21.62.13,1.24.27,1.87.42.31.07.61.14.91.21.94.23,1.88.47,2.84.73,1.42.39,2.8.74,4.16,1.07.16.04.33.08.49.12,1.29.31,2.55.58,3.78.84.19.04.38.08.58.12,1.23.25,2.42.47,3.59.66.15.03.31.05.46.07,1.21.2,2.4.37,3.55.52.04,0,.08,0,.12.01,2.45.31,4.78.5,7.01.6.03,0,.07,0,.1,0,1.1.05,2.17.07,3.23.07.04,0,.09,0,.13,0,1.06,0,2.1-.03,3.12-.07h0c11.51-.54,20.3-3.81,29.35-7.53h0s.04-.02.06-.03c.55-.22,1.1-.45,1.65-.68.31-.13.61-.25.92-.38.31-.13.63-.26.94-.39,1.7-.7,3.42-1.41,5.18-2.1.05-.02.11-.04.16-.06.56-.22,1.12-.44,1.68-.65.03-.01.07-.03.1-.04,1.83-.7,3.72-1.38,5.67-2.04.02,0,.05-.02.07-.02,2.62-.87,5.36-1.68,8.28-2.4l.08-.02c2.2-.54,4.5-1.03,6.92-1.44,6.26-1.08,13.33-1.7,21.56-1.58,4.1.06,7.93.21,11.53.43h0c1.17.07,2.31.15,3.43.24.27.02.53.04.8.06.93.07,1.85.15,2.75.24.18.02.36.03.54.05,1.06.1,2.09.21,3.1.33.2.02.39.05.59.07.84.1,1.67.2,2.48.31.22.03.44.06.65.09.97.13,1.92.27,2.85.41.05,0,.1.02.15.02.88.14,1.73.28,2.58.42.2.03.41.07.61.11.83.14,1.64.29,2.44.45.05.01.11.02.16.03.86.17,1.7.34,2.53.52.16.03.32.07.49.1.71.15,1.4.31,2.08.47.13.03.25.06.38.09.8.19,1.59.38,2.36.57.07.02.14.04.21.05.7.18,1.39.36,2.07.54.13.04.27.07.4.11,1.49.41,2.93.83,4.33,1.25.1.03.2.06.31.09.69.21,1.37.43,2.04.64,0,0,0,0,0,0,.72.23,1.44.47,2.14.71h.02c.7.24,1.39.48,2.07.72,12.54,4.36,22.68,9.04,38.79,10.98.12.01.23.03.35.04.96.11,1.94.22,2.94.31.05,0,.11,0,.16.01.98.09,1.98.17,3.01.24.1,0,.19.01.29.02,1.03.07,2.08.12,3.15.17.18,0,.37.01.55.02,1.09.04,2.19.08,3.33.09.06,0,.13,0,.19,0,1.09.02,2.21.02,3.35.02.2,0,.4,0,.61,0,1.16,0,2.35-.03,3.56-.06.24,0,.49-.01.73-.02,1.27-.04,2.55-.09,3.88-.15,1.76-.09,3.5-.2,5.24-.33.43-.03.86-.06,1.28-.1,1.72-.13,3.42-.28,5.11-.45ZM52.68,79.35c0-.56.28-.84.84-.84h14.35c4.05,0,7.31,1.49,9.79,4.47,2.47,2.98,3.71,6.89,3.71,11.73v31.4c-.11,4.84-1.41,8.75-3.88,11.73-2.48,2.98-5.63,4.47-9.45,4.47h-14.52c-.56,0-.84-.28-.84-.84v-62.12Z"></path><path class="d" d="M341.96,167.86c-.35-.15-.62-.36-.81-.64s-.28-.6-.28-.96v-.19s0-.05.03-.07c.02-.02.04-.03.07-.03h.99s.05.01.07.03c.02.02.03.04.03.07v.13c0,.23.11.43.32.59.21.16.51.24.87.24.31,0,.54-.07.69-.2.15-.13.23-.29.23-.48,0-.14-.05-.26-.14-.35-.09-.1-.22-.18-.38-.25s-.41-.17-.76-.3c-.39-.13-.72-.27-.99-.41-.27-.14-.5-.33-.68-.57-.18-.24-.27-.54-.27-.89s.09-.65.27-.92c.18-.26.43-.46.75-.6.32-.14.69-.21,1.11-.21.44,0,.84.08,1.18.24s.62.38.81.66c.19.28.29.61.29.98v.13s-.01.05-.03.07c-.02.02-.05.03-.07.03h-1s-.05-.01-.07-.03c-.02-.02-.03-.04-.03-.07v-.07c0-.24-.1-.45-.3-.62-.2-.17-.47-.26-.82-.26-.27,0-.49.06-.64.17-.15.12-.23.28-.23.48,0,.15.05.27.13.37.09.1.22.19.4.27.18.08.45.18.82.32.41.15.74.28.97.4.24.12.45.29.64.52s.28.53.28.89c0,.55-.2.98-.6,1.29-.4.32-.94.48-1.63.48-.47,0-.87-.07-1.22-.22Z"></path><path class="d" d="M350.8,161.92h1.02s.05.01.07.03c.02.02.03.04.03.07v5.89s-.01.05-.03.07c-.02.02-.05.03-.07.03h-1.02s-.05-.01-.07-.03c-.02-.02-.03-.05-.03-.07v-3.84s0-.04-.02-.04-.02,0-.03.03l-.92,1.45s-.07.07-.12.07h-.51c-.05,0-.09-.02-.12-.07l-.92-1.45s-.02-.02-.03-.02c-.01,0-.02.02-.02.04v3.83s0,.05-.03.07c-.02.02-.05.03-.07.03h-1.02s-.05-.01-.07-.03c-.02-.02-.03-.05-.03-.07v-5.89s0-.05.03-.07c.02-.02.04-.03.07-.03h1.02c.05,0,.09.02.12.07l1.31,2.03s.03.03.05,0l1.32-2.03s.07-.07.12-.07Z"></path><polygon class="d" points="128.53 .65 151.44 .65 149.28 9.47 138.3 9.47 137.21 14.11 148.67 14.11 146.67 22.28 135.37 22.28 132.65 33.89 120.82 33.89 128.53 .65"></polygon><polygon class="d" points="154.55 .65 166.39 .65 158.68 33.89 146.84 33.89 154.55 .65"></polygon><path class="d" d="M178.22,16.5c3.8,0,6.46-2.24,6.46-5.43,0-1.69-1.25-2.54-3.69-2.54-.7,0-1.09.05-1.85.2l-1.79,7.68c.38.05.44.1.87.1M169.48.85l.76-.1c3.8-.45,8.52-.75,11.13-.75,4.34,0,7.71.5,10.26,1.54,3.26,1.35,5.21,4.29,5.21,7.83,0,3.04-1.03,5.93-2.99,8.17-1.68,1.94-3.2,2.89-6.35,3.84l-.76.25c.33.25.44.35.6.5.92,1.05,3.69,6.43,6.03,11.76h-13.03c-1.68-4.74-2.17-5.98-4.4-11.36l-2.61,11.36h-11.51L169.48.85Z"></path><polygon class="d" points="224.94 .65 253.66 .65 251.65 10.27 243.13 10.27 237.48 33.89 225.65 33.89 231.29 10.27 222.05 10.27 224.94 .65"></polygon><path class="d" d="M242.94,30.74c.26,0,.4-.12.4-.36s-.13-.35-.39-.35c-.06,0-.07,0-.12.01v.68s.07.01.11.01M241.9,29.36c.15-.01.17-.02.46-.04.29-.02.41-.03.54-.03.95,0,1.42.37,1.42,1.07,0,.42-.18.68-.56.83h-.05s.05.04.06.07c.1.09.44.59.71,1.05h-1.08c-.22-.41-.29-.52-.57-.99v.99h-.93v-2.93ZM243.02,33.37c1.41,0,2.53-1.13,2.53-2.52s-1.13-2.53-2.53-2.53-2.52,1.13-2.52,2.52,1.12,2.53,2.52,2.53M243.02,27.95c1.59,0,2.89,1.28,2.89,2.88s-1.28,2.89-2.89,2.89-2.88-1.26-2.88-2.89,1.27-2.88,2.88-2.88"></path><path class="d" d="M218.33,16.2c-1.36-1.1-2.77-1.94-5.65-3.29l-2.33-1.1c-.76-.4-1.14-.8-1.14-1.25,0-1.2,1.52-2.09,3.58-2.09,1.54,0,3.38.45,6.9,1.6l2.43-9c-2.63-.71-5.19-1.07-7.75-1.07-9.66,0-17.1,5.28-17.1,12.11,0,3.59,2.39,6.13,8.36,8.92,2.82,1.3,3.31,1.64,3.31,2.54,0,1.35-1.47,2.19-3.86,2.19-2.12,0-4.83-.65-8.52-1.99h0s-2.6,9.27-2.6,9.27c3.33.99,6.97,1.54,10.37,1.54,4.62,0,8.14-1.05,11.18-3.24,3.37-2.39,5.54-6.08,5.54-9.42,0-2.24-.98-4.29-2.71-5.73"></path><path class="d" d="M95.4,186.48h-1.36v2.66h-1.38v-7.06h2.74c1.46,0,2.33,1,2.33,2.2s-.87,2.2-2.33,2.2ZM95.33,183.3h-1.29v1.93h1.29c.62,0,1.02-.39,1.02-.96s-.4-.97-1.02-.97Z"></path><path class="d" d="M103.14,189.13l-1.38-2.82h-.99v2.82h-1.38v-7.06h2.77c1.44,0,2.29.98,2.29,2.16,0,.99-.61,1.61-1.29,1.85l1.58,3.04h-1.6ZM102.07,183.3h-1.3v1.86h1.3c.61,0,1-.39,1-.93s-.4-.93-1-.93Z"></path><path class="d" d="M106.37,189.13v-7.06h4.65v1.23h-3.27v1.66h2.79v1.23h-2.79v1.72h3.27v1.23h-4.65Z"></path><path class="d" d="M114.82,189.19c-1.07,0-1.88-.23-2.58-.93l.89-.89c.45.45,1.05.6,1.71.6.81,0,1.25-.31,1.25-.87,0-.25-.07-.46-.22-.6-.14-.13-.3-.2-.62-.25l-.85-.12c-.61-.09-1.05-.28-1.37-.59-.34-.34-.51-.79-.51-1.39,0-1.26.93-2.14,2.46-2.14.97,0,1.68.24,2.28.82l-.87.86c-.45-.43-.98-.49-1.45-.49-.73,0-1.09.41-1.09.89,0,.18.06.37.21.51.14.13.37.24.65.28l.83.12c.64.09,1.05.27,1.35.55.38.36.55.87.55,1.5,0,1.37-1.14,2.14-2.62,2.14Z"></path><path class="d" d="M119.23,189.13v-7.06h4.65v1.23h-3.27v1.66h2.79v1.23h-2.79v1.72h3.27v1.23h-4.65Z"></path><path class="d" d="M129.91,189.13l-2.8-4.33v4.33h-1.38v-7.06h1.23l2.8,4.32v-4.32h1.38v7.06h-1.23Z"></path><path class="d" d="M135.98,183.3v5.83h-1.38v-5.83h-1.84v-1.23h5.07v1.23h-1.84Z"></path><path class="d" d="M139.44,189.13v-7.06h4.65v1.23h-3.27v1.66h2.79v1.23h-2.79v1.72h3.27v1.23h-4.65Z"></path><path class="d" d="M150.35,188.46c-.47.47-1.13.67-1.86.67h-2.55v-7.06h2.55c.73,0,1.4.21,1.86.67.79.79.71,1.77.71,2.83s.08,2.09-.71,2.89ZM149.39,183.74c-.24-.29-.56-.44-1.03-.44h-1.04v4.6h1.04c.48,0,.79-.15,1.03-.44.26-.32.3-.82.3-1.89s-.04-1.52-.3-1.83Z"></path><path class="d" d="M158.73,189.13h-2.96v-7.06h2.84c1.38,0,2.18.77,2.18,1.98,0,.78-.52,1.29-.87,1.46.43.2.97.64.97,1.59,0,1.32-.9,2.03-2.16,2.03ZM158.5,183.3h-1.35v1.63h1.35c.59,0,.91-.33.91-.81s-.33-.81-.91-.81ZM158.59,186.17h-1.44v1.74h1.44c.62,0,.92-.4.92-.87s-.3-.86-.92-.86Z"></path><path class="d" d="M165.5,186.24v2.9h-1.37v-2.9l-2.12-4.17h1.5l1.32,2.85,1.3-2.85h1.5l-2.12,4.17Z"></path><path class="d" d="M209.58,181.72c.26,0,.5.22.5.5v9.4c0,.26-.24.48-.5.48h-1.28c-.24,0-.48-.19-.48-.45v-.87c-.65.95-1.75,1.6-3.37,1.6-2.7,0-4.37-1.79-4.37-4.45v-5.73c0-.26.24-.48.5-.48h1.28c.26,0,.48.22.48.48v5.36c0,1.73.91,2.87,2.7,2.87s2.79-1.19,2.79-2.85v-5.38c0-.26.24-.48.48-.48h1.28M190.78,176.51c-4.37,0-7.89,3.39-7.89,7.93s3.52,7.93,7.89,7.93c.75,0,1.47-.1,2.15-.29l.85,2.21c.09.24.26.39.58.39h1.36c.32,0,.56-.22.41-.63l-1.11-2.89c2.19-1.38,3.64-3.81,3.64-6.72,0-4.54-3.52-7.93-7.89-7.93M194.21,189.04l-.99-2.59c-.09-.22-.26-.41-.65-.41h-1.3c-.32,0-.58.22-.43.63l1.31,3.4c-.43.11-.89.17-1.38.17-3.2,0-5.47-2.51-5.47-5.79s2.27-5.79,5.47-5.79,5.47,2.51,5.47,5.79c0,1.91-.77,3.55-2.03,4.6M281.77,191.58c.11.26-.02.52-.35.52h-1.43c-.26,0-.48-.13-.56-.39l-2.64-7.09-2.68,7.09c-.11.28-.3.39-.56.39h-1.28c-.26,0-.45-.11-.56-.39l-2.7-7.13-2.66,7.13c-.11.26-.3.39-.56.39h-1.34c-.26,0-.45-.13-.56-.39l-2.64-7.13-2.72,7.13c-.11.28-.3.39-.56.39h-1.28c-.26,0-.45-.11-.56-.39l-2.66-7.13-2.66,7.13c-.09.26-.3.39-.56.39h-1.38c-.32,0-.45-.26-.35-.52l3.61-9.45c.11-.28.3-.41.56-.41h1.56c.26,0,.45.13.56.41l2.55,6.9,2.57-6.9c.11-.28.3-.41.56-.41h1.54c.26,0,.45.13.56.41l2.55,6.9,2.55-6.9c.11-.28.3-.41.56-.41h1.53c.26,0,.45.13.56.41l2.59,6.9,2.53-6.9c.11-.28.3-.41.56-.41h1.56c.26,0,.45.13.56.41l3.61,9.45M221.95,181.72h-1.28c-.26,0-.5.22-.5.5v.86c-.65-.97-1.9-1.66-3.39-1.66-2.81,0-5.23,2.23-5.23,5.47s2.42,5.49,5.21,5.49c1.51,0,2.75-.69,3.42-1.66v.91c0,.26.24.48.5.48h1.28c.26,0,.48-.22.48-.48v-9.4c0-.28-.22-.5-.48-.5M217.02,190.3c-1.86,0-3.18-1.51-3.18-3.39s1.32-3.37,3.18-3.37,3.18,1.47,3.18,3.37-1.34,3.39-3.18,3.39M237.16,190.63c.28.35.04.61-.11.71-.89.67-2.05,1.04-3.33,1.04-3.22,0-5.36-2.36-5.36-5.47s2.14-5.49,5.36-5.49c1.28,0,2.44.37,3.33,1.04.15.11.37.35.11.71l-.61.84c-.24.32-.52.24-.76.09-.56-.35-1.23-.63-2.01-.63-1.88,0-3.13,1.51-3.13,3.44s1.25,3.42,3.13,3.42c.78,0,1.4-.3,1.97-.63.24-.13.5-.24.76.11l.65.82ZM243.17,181.44c-3.03,0-5.45,2.38-5.45,5.47s2.42,5.47,5.45,5.47,5.45-2.36,5.45-5.47-2.42-5.47-5.45-5.47M243.17,190.28c-1.86,0-3.18-1.49-3.18-3.37s1.32-3.37,3.18-3.37,3.18,1.47,3.18,3.37-1.32,3.37-3.18,3.37M226.42,176.79c.28,0,.48.24.48.5v14.31c0,.26-.19.5-.48.5h-1.28c-.26,0-.5-.24-.5-.5v-14.31c0-.26.24-.5.5-.5h1.28"></path></g></svg>