<?xml version="1.0" encoding="UTF-8" standalone="no"?>
<svg
   width="211.14735mm"
   height="211.64223mm"
   viewBox="0 0 211.14735 211.64222"
   version="1.1"
   id="svg8"
   xml:space="preserve"
   xmlns="http://www.w3.org/2000/svg"
   xmlns:svg="http://www.w3.org/2000/svg"
   xmlns:rdf="http://www.w3.org/1999/02/22-rdf-syntax-ns#"
   xmlns:cc="http://creativecommons.org/ns#"
   xmlns:dc="http://purl.org/dc/elements/1.1/"><defs
     id="defs2" /><metadata
     id="metadata5"><rdf:RDF><cc:Work
         rdf:about=""><dc:format>image/svg+xml</dc:format><dc:type
           rdf:resource="http://purl.org/dc/dcmitype/StillImage" /></cc:Work></rdf:RDF></metadata><g
     id="layer1"
     transform="translate(-670.76343,-80.534389)"><g
       id="g847"
       transform="translate(210.91071,-65.767857)"><g
         id="g84"
         transform="translate(-7.8577241,-5.6126601)"><path
           id="path48"
           style="display:inline;fill:#000000;fill-opacity:1"
           d="m 575.87779,151.94978 c -19.05556,-0.48873 -38.15182,4.16066 -54.94652,13.86789 -1.2802,0.73996 -2.53593,1.46471 -2.79001,1.61023 -0.57122,0.32717 -5.89578,3.86663 -6.25956,4.16099 -0.14552,0.11776 -1.43678,1.10285 -2.86959,2.18901 -5.82208,4.41351 -14.77457,13.2082 -18.42937,18.10484 -0.3638,0.48742 -1.13771,1.50977 -1.71979,2.2717 -0.58209,0.76193 -1.23694,1.6549 -1.45521,1.98437 -0.21828,0.32947 -0.63975,0.90991 -0.93689,1.28985 -0.50299,0.64315 -2.56576,3.78817 -3.16415,4.82451 -0.14552,0.25203 -0.81426,1.38975 -1.48622,2.52801 -1.78714,3.02739 -6.05441,11.60141 -6.05441,12.16515 0,0.0785 -0.17321,0.51813 -0.38499,0.97668 -0.38298,0.82926 -0.86678,2.1329 -1.63556,4.40594 -0.22148,0.65485 -0.50019,1.42875 -0.61908,1.71979 -1.7893,4.38024 -4.07503,15.02802 -4.9413,23.01875 -0.87687,8.08847 -0.5044,20.50669 0.83302,27.78125 0.73253,3.98436 0.88885,4.76551 1.40147,7.01146 5.48362,24.02491 20.87553,47.31677 40.53603,61.34147 1.90922,1.36193 7.00469,4.73415 8.11165,5.36815 7.46418,4.27505 11.36189,6.14479 17.55293,8.42119 9.67392,3.55703 17.58228,5.25917 29.50104,6.34948 v 5.2e-4 c 3.10627,0.284 10.97695,0.28923 14.02292,0.009 6.3849,-0.58724 8.42151,-0.84034 11.90625,-1.48104 7.47438,-1.37421 16.79546,-4.11074 21.96041,-6.44716 0.72761,-0.32914 1.97776,-0.8908 2.77813,-1.24798 17.20639,-7.6787 32.76377,-20.81311 43.97199,-37.12383 1.661,-2.41716 5.47273,-8.79673 6.02909,-10.09086 0.14776,-0.34371 0.3863,-0.80336 0.5302,-1.02164 0.36602,-0.55521 3.01659,-6.28567 3.42667,-7.40834 0.18604,-0.50932 0.4951,-1.28323 0.68678,-1.71979 2.09636,-4.77459 3.98515,-11.30534 5.7769,-19.97604 2.28501,-11.0576 2.18379,-27.14408 -0.24804,-39.42292 -1.27845,-6.45519 -3.83824,-15.09223 -5.69991,-19.23397 -0.27441,-0.61047 -0.49868,-1.17875 -0.49868,-1.26245 0,-0.4213 -5.08561,-10.77795 -5.62498,-11.45512 -0.14626,-0.18363 -0.4586,-0.6803 -0.69401,-1.10329 -1.05287,-1.89187 -1.52527,-2.65937 -3.17449,-5.16041 -8.42707,-12.77961 -20.49791,-24.34283 -33.50131,-32.09209 -3.45979,-2.06182 -5.11245,-2.95541 -8.60464,-4.65037 -13.66908,-6.63436 -28.46578,-10.12258 -43.28677,-10.50271 z m -0.64647,2.31614 c 14.83398,0.27747 29.64393,3.7268 43.27746,10.39678 30.19573,14.77279 51.26618,43.11612 56.73607,76.31937 1.26169,7.65869 1.65179,20.00412 0.86145,27.25208 -5.36127,49.16614 -42.72222,86.72752 -91.99335,92.48738 -3.2393,0.37868 -15.46816,0.53133 -19.05,0.23771 -21.1338,-1.73239 -42.7776,-10.57397 -57.94375,-23.67039 -12.23303,-10.56358 -21.13027,-22.13972 -27.45156,-35.7172 -22.43115,-48.17976 -4.90043,-105.39423 40.67504,-132.74952 16.704,-10.02608 35.81636,-14.91295 54.88864,-14.55621 z m -1.83193,36.59828 c -0.58192,-7.1e-4 -1.16455,0.10497 -1.58957,0.31678 -0.71746,0.35754 -1.79666,3.05074 -1.83296,4.57491 -0.0179,0.75217 -0.13048,0.84641 -1.54047,1.28416 -0.83674,0.25977 -2.41433,0.93675 -3.50573,1.50482 -1.57264,0.81853 -2.03928,0.96121 -2.24896,0.68781 -0.42967,-0.56023 -3.73964,-2.30373 -4.37338,-2.30373 -0.9258,0 -2.63808,1.88247 -2.63808,2.90059 0,0.8873 1.61372,3.94258 2.28565,4.32739 0.31163,0.17847 0.24224,0.45809 -0.39274,1.5875 -0.80179,1.42608 -1.89291,4.3683 -1.89291,5.10408 0,0.28368 -0.14294,0.36932 -0.43202,0.25838 -0.85374,-0.32761 -4.85446,1.12021 -5.13508,1.85829 -0.62777,1.65116 -0.15898,3.5722 0.98082,4.01836 1.22073,0.47784 3.08068,0.91497 3.82457,0.89917 0.62865,-0.0133 0.73485,0.13823 1.13791,1.62057 0.24451,0.89924 0.895,2.4886 1.44539,3.53208 0.9533,1.80734 0.97797,1.9165 0.52452,2.30477 -0.68471,0.58626 -2.08153,3.46378 -2.08153,4.28811 0,0.93542 1.80157,2.75487 2.728,2.75487 0.78264,0 3.80254,-1.72471 4.23644,-2.41949 0.27868,-0.44624 0.36006,-0.43521 1.43247,0.19327 0.6254,0.36651 1.87938,0.94466 2.78639,1.2852 2.01209,0.75546 1.96522,0.55331 1.28313,5.53454 -2.34406,17.11806 -2.12381,15.85641 -2.89337,16.56075 -0.71608,0.65539 -11.60276,10.82521 -13.80432,12.89533 -0.75751,0.71229 -1.28025,1.02556 -1.44178,0.86403 -0.67639,-0.67639 -4.34673,0.72727 -5.2958,2.0252 -0.23326,0.319 -0.55219,0.23285 -1.99677,-0.54002 -0.94539,-0.50578 -2.4629,-1.12163 -3.37241,-1.36839 -1.51813,-0.41188 -1.65364,-0.50806 -1.65364,-1.17512 0,-1.40014 -1.04442,-4.20078 -1.7353,-4.65346 -0.91817,-0.60161 -3.22392,-0.37202 -3.83439,0.38189 -0.56018,0.69179 -1.38126,3.90432 -1.16892,4.57336 0.1075,0.33873 0.0328,0.50333 -0.22944,0.50333 -0.80155,0 -4.16788,1.29172 -5.49683,2.10943 -1.20829,0.74346 -1.40736,0.7954 -1.61592,0.42271 -0.28966,-0.51757 -3.69576,-2.26756 -4.41317,-2.26756 -1.16537,0 -3.11906,2.38059 -2.75435,3.35639 0.2692,0.72027 1.69009,3.05199 2.23087,3.66076 0.45943,0.51719 0.45302,0.57409 -0.19999,1.71979 -0.37144,0.6517 -0.99584,2.13744 -1.38751,3.3016 -0.59193,1.75943 -0.80018,2.10446 -1.23248,2.04536 -1.04927,-0.14341 -4.46907,1.14846 -4.81521,1.81901 -0.48974,0.94874 -0.41419,2.7259 0.14573,3.41736 0.52415,0.64729 3.12842,1.57168 4.44572,1.57768 0.77749,0.004 0.84933,0.0918 1.25264,1.52549 0.23538,0.83674 0.89275,2.44546 1.46089,3.57498 0.7807,1.5521 0.95049,2.10136 0.69401,2.24895 -0.53615,0.30852 -2.24917,3.61083 -2.24017,4.31809 0.0131,0.99675 1.92394,2.88871 2.91765,2.88871 0.574,0 3.98293,-2.00725 4.28295,-2.52181 0.15036,-0.25789 0.55497,-0.14551 1.69188,0.47026 0.82174,0.44507 2.34036,1.07947 3.37447,1.40973 1.44248,0.46068 1.86058,0.70378 1.79628,1.04438 -0.11981,0.6344 0.98049,4.14001 1.47226,4.69067 0.50473,0.56434 3.15296,0.64716 3.87263,0.12092 0.49772,-0.36394 1.4857,-3.51936 1.4857,-4.74545 0,-0.51988 0.13476,-0.73445 0.46302,-0.73845 0.81231,-0.01 3.96836,-1.23147 5.302,-2.05207 1.17374,-0.72221 1.31375,-0.75293 1.56838,-0.3452 0.54256,0.86878 4.11184,2.46394 4.86895,2.17609 0.82013,-0.31181 2.0252,-1.69272 2.24638,-2.574 0.17416,-0.69387 -1.72614,-4.24981 -2.41174,-4.5129 -0.26674,-0.10236 -0.0993,-0.6412 0.67334,-2.16886 0.5655,-1.11809 1.17226,-2.65654 1.34824,-3.41892 0.28369,-1.22905 0.39716,-1.38657 1.00201,-1.38957 0.98654,-0.005 4.02176,-1.0022 4.57543,-1.50327 0.58119,-0.52593 0.64651,-3.13688 0.0966,-3.86178 -0.38113,-0.50247 -3.51171,-1.51102 -4.69015,-1.51102 -0.62907,0 -0.73634,-0.14439 -1.02888,-1.38906 -0.17957,-0.76398 -0.49745,-1.72726 -0.70693,-2.14096 -0.20952,-0.41371 -0.34269,-0.78689 -0.29559,-0.82889 0.0996,-0.0889 1.76859,-1.11013 9.21391,-5.63945 11.13633,-6.77475 13.17247,-7.99331 13.35784,-7.99331 0.20832,0 2.53808,1.40171 10.89494,6.55309 3.03203,1.86902 6.73246,4.146 8.22327,5.06016 1.49081,0.91416 2.76505,1.74989 2.83135,1.85725 0.0664,0.10736 -0.20257,1.19954 -0.59738,2.42724 -0.57422,1.78562 -0.81032,2.21452 -1.18132,2.14302 -0.82928,-0.15971 -4.43126,1.06233 -4.8364,1.64073 -0.61087,0.87215 -0.49219,2.92412 0.21343,3.68815 0.59515,0.64441 3.14812,1.5012 4.47207,1.5012 0.59294,0 0.71753,0.18332 1.12345,1.65364 0.25108,0.9095 0.92961,2.51893 1.50792,3.57653 0.88629,1.62083 0.98536,1.94831 0.63148,2.08411 -0.53918,0.2069 -2.24482,3.58093 -2.24482,4.44055 0,0.75968 1.61703,2.46367 2.56315,2.70113 0.65435,0.16423 4.09642,-1.67498 4.5067,-2.40812 0.17112,-0.30576 0.58507,-0.18786 2.2164,0.632 1.10317,0.55442 2.62035,1.16558 3.37137,1.35806 1.16891,0.29958 1.3653,0.44164 1.3653,0.9865 0,1.20916 1.09836,4.28849 1.67328,4.69119 0.82387,0.57706 2.87493,0.5053 3.68091,-0.12868 0.65616,-0.51614 1.52497,-3.12312 1.52497,-4.57594 0,-0.53032 0.20706,-0.676 1.38907,-0.97824 0.76398,-0.19535 2.35544,-0.85203 3.53673,-1.45934 1.87685,-0.96491 2.18161,-1.05185 2.41484,-0.6873 0.14679,0.22945 1.16258,0.87282 2.25723,1.42989 1.93561,0.98502 2.0123,1.00158 2.80293,0.59273 0.83473,-0.43166 2.15129,-2.11152 2.15129,-2.74505 0,-0.49005 -2.10019,-3.98443 -2.54403,-4.23282 -0.28363,-0.15873 -0.13968,-0.62085 0.67489,-2.16886 0.56936,-1.08201 1.18314,-2.63507 1.36426,-3.45147 0.28926,-1.3038 0.39851,-1.47133 0.89917,-1.37563 0.91465,0.17484 4.32604,-0.97544 4.76922,-1.60817 0.4694,-0.67019 0.51435,-2.53232 0.0842,-3.47627 -0.33363,-0.73223 -1.94751,-1.36061 -4.22145,-1.64331 l -1.22215,-0.15193 -0.44752,-1.62057 c -0.24614,-0.89146 -0.90701,-2.47512 -1.46812,-3.51917 -0.73456,-1.36681 -0.92453,-1.93481 -0.67955,-2.02881 0.53785,-0.20639 2.26188,-3.48912 2.26188,-4.30672 0,-1.06532 -1.69353,-2.74648 -2.76572,-2.74557 -0.79071,6.6e-4 -3.70475,1.5381 -4.25969,2.24741 -0.22636,0.28932 -0.65209,0.16801 -2.27273,-0.64647 -1.09669,-0.55117 -2.60845,-1.15938 -3.35949,-1.35186 -1.17808,-0.30194 -1.36529,-0.43893 -1.36529,-0.9989 0,-1.25873 -1.06066,-4.24981 -1.65468,-4.66587 -0.81637,-0.57183 -2.90075,-0.5261 -3.64939,0.0801 -0.64289,0.52058 -1.38206,2.74526 -1.42006,4.27519 -0.0227,0.91318 -0.0461,0.93171 -1.87534,1.46193 -1.01903,0.29538 -2.64383,0.97964 -3.61063,1.52032 -1.39993,0.78288 -1.78812,0.90467 -1.90583,0.5979 -0.19759,-0.5149 -3.68877,-2.2562 -4.52376,-2.2562 -0.50107,0 -2.57324,-1.78736 -8.54521,-7.37164 l -7.88324,-7.37113 -0.61082,-4.33668 c -0.75122,-5.33367 -1.30145,-9.30764 -1.62625,-11.74451 -0.13578,-1.01864 -0.32387,-2.39655 -0.41807,-3.06234 l -0.17156,-1.21078 1.9482,-0.71468 c 1.07131,-0.39301 2.47823,-1.0468 3.12642,-1.45315 l 1.17823,-0.73897 0.54157,0.59066 c 0.63093,0.68857 3.50744,2.22229 4.16977,2.22312 0.63395,7.9e-4 2.19472,-1.42835 2.58279,-2.36523 0.29638,-0.71555 0.23238,-0.94632 -0.76482,-2.7528 -0.59857,-1.08433 -1.26705,-2.03969 -1.48518,-2.12339 -0.32659,-0.12532 -0.23695,-0.4686 0.50798,-1.9451 0.93943,-1.86198 1.74822,-4.04226 1.74822,-4.71289 0,-0.25117 0.26956,-0.38757 0.76584,-0.38757 1.31713,0 4.21106,-1.0294 4.6483,-1.65365 0.56058,-0.80033 0.52785,-2.90257 -0.0563,-3.61373 -0.51624,-0.62841 -4.04793,-1.73914 -4.85707,-1.52755 -0.36403,0.0952 -0.50074,-0.009 -0.50074,-0.38189 0,-0.7659 -1.48335,-4.4581 -2.23294,-5.55832 -0.63462,-0.93148 -0.63947,-0.97545 -0.16588,-1.40405 0.77573,-0.70201 2.13423,-3.45298 2.13423,-4.3217 0,-0.97509 -1.76833,-2.70578 -2.76469,-2.70578 -0.68124,0 -3.78934,1.68958 -4.25503,2.31304 -0.22537,0.3017 -0.5355,0.22742 -1.78026,-0.42736 -0.82912,-0.43615 -2.34349,-1.0626 -3.36517,-1.39165 -1.75244,-0.56441 -1.85922,-0.64403 -1.88102,-1.40612 -0.0438,-1.53252 -1.11498,-4.20799 -1.82883,-4.56768 -0.4223,-0.21296 -1.00352,-0.31967 -1.58543,-0.32039 z m -0.79582,10.75903 v 4.92167 4.92166 l -0.75809,0.39222 c -0.76877,0.39754 -1.61929,1.81139 -1.62729,2.70423 -0.003,0.29436 -1.47203,1.78019 -3.6897,3.73052 -2.02699,1.78263 -3.74936,3.24115 -3.82716,3.24115 -0.0778,0 -0.36852,-0.44648 -0.64647,-0.99219 -4.05445,-7.96026 0.72276,-17.33807 9.55653,-18.75958 z m 1.5875,0 0.99219,0.15968 c 8.76797,1.41093 13.62935,10.69197 9.68778,18.495 -0.34916,0.69123 -0.7222,1.25085 -0.82889,1.24385 -0.66406,-0.0446 -7.35415,-6.43731 -7.50962,-7.17579 -0.26383,-1.25312 -0.7942,-2.07899 -1.60455,-2.49804 l -0.73691,-0.38137 v -4.92166 z m -28.48766,10.65103 c -0.36275,0 -4.90976,3.06098 -7.13083,4.80023 -12.96489,10.15231 -20.73277,25.44645 -21.44831,42.22946 -0.0886,2.07367 -0.0874,3.77031 0.002,3.77031 0.0896,0 1.01064,-0.54868 2.0469,-1.21904 2.05499,-1.32936 5.02703,-2.7698 6.79752,-3.29438 0.61846,-0.18324 1.12665,-0.4628 1.12965,-0.62166 0.0208,-1.1617 0.84968,-6.26223 1.3162,-8.09977 2.66196,-10.48512 8.88892,-20.00416 17.07957,-26.10745 l 1.60042,-1.19217 -0.48834,-1.89136 c -0.26833,-1.04046 -0.55992,-3.35039 -0.64802,-5.13302 -0.0881,-1.78263 -0.20363,-3.24115 -0.25683,-3.24115 z m 27.69391,0 c 2.17158,0 2.95968,3.11775 1.03922,4.11086 -0.89654,0.46334 -0.94739,0.46418 -1.99161,0.009 -2.02053,-0.87958 -1.2715,-4.12016 0.95239,-4.12016 z m 27.81123,0.26459 c -0.19118,0 -0.29494,0.72055 -0.29559,2.05052 -10e-4,2.18953 -0.55051,6.05379 -1.03973,7.31273 -0.16335,0.42036 -0.26375,0.78198 -0.22325,0.80408 1.81965,0.99246 6.90598,5.6846 9.19893,8.48579 5.63887,6.88872 9.65041,16.45471 10.45672,24.93388 l 0.18242,1.91513 1.09761,0.2899 c 1.46332,0.38641 5.53557,2.38829 7.18354,3.53157 0.7276,0.50478 1.43008,0.92476 1.56114,0.93276 0.34658,0.0212 -0.008,-7.60855 -0.48627,-10.46654 -2.62344,-15.67039 -11.57775,-29.43685 -24.79125,-38.11551 -1.40223,-0.92098 -2.68216,-1.67431 -2.84427,-1.67431 z m -25.60413,4.32996 c 0.22384,-0.14055 0.96749,0.47623 3.35277,2.56677 4.63302,4.06054 4.29479,3.51351 2.9254,4.7284 -0.64089,0.56858 -1.91692,1.40008 -2.83548,1.84795 -1.9954,0.9729 -2.16412,0.98893 -2.32338,0.2191 -0.19952,-0.96455 -1.21329,-8.49079 -1.21129,-8.99583 6.2e-4,-0.18862 0.0174,-0.31954 0.092,-0.36639 z m -4.83278,0.44597 c 0.36863,0.203 0.12704,1.52883 -0.26768,4.22972 -0.30035,2.05515 -0.54622,4.08438 -0.54622,4.50928 0,0.44908 -0.13848,0.76661 -0.33073,0.75861 -0.9863,-0.0416 -5.75469,-3.09158 -5.75469,-3.68091 0,-0.13103 1.57758,-1.61991 3.50573,-3.30832 2.04596,-1.79158 3.02495,-2.71139 3.39359,-2.50838 z m -24.77058,19.83083 c -7.5579,0 -6.99957,-0.50666 -6.99957,6.35 0,5.01015 0.005,5.05626 0.64957,5.70043 0.64933,0.64933 0.65033,0.64957 6.35,0.64957 h 5.70043 v -0.78858 -0.78858 l -5.4901,-0.0713 -5.49011,-0.0713 v -4.63021 -4.63021 l 5.49011,-0.0718 5.4901,-0.0713 v -0.78858 -0.78807 z m 58.67911,0.0512 c -0.99367,-0.0389 -2.33346,-0.013 -4.13928,0.0103 l -5.58003,0.0713 -0.0708,6.28386 -0.0713,6.28333 h 0.78859 0.78806 l 0.0765,-2.3151 0.0765,-2.31511 2.52285,-0.0749 2.52284,-0.0749 1.95854,2.39004 c 1.86803,2.27983 2.00671,2.39055 3.00808,2.39055 0.97253,0 1.0209,-0.0341 0.65836,-0.46302 -0.21525,-0.25466 -1.08742,-1.29698 -1.93838,-2.31562 l -1.54719,-1.85209 1.30224,-0.0827 c 2.1893,-0.13943 2.49287,-0.63221 2.49287,-4.04523 0,-3.07804 0.13262,-3.77359 -2.8484,-3.8902 z m -8.13181,1.66863 h 4.63021 4.63021 l 0.0765,2.31511 0.0765,2.3151 h -4.64881 c -5.32557,0 -4.95831,0.20251 -4.84311,-2.67064 z m -62.83854,33.13287 v 4.886 4.88601 l -0.65991,0.35295 c -0.85988,0.4602 -1.43028,1.3537 -1.50688,2.35955 -0.0514,0.67494 -0.62231,1.29336 -3.49539,3.78788 -4.75473,4.12823 -4.21073,3.89522 -5.03277,2.15904 -3.65493,-7.71933 1.26353,-17.13868 9.54153,-18.2733 z m 77.52292,0.004 v 4.66431 c 0,2.56536 -0.0298,4.6627 -0.0661,4.6607 -0.0364,-0.002 -0.78052,-0.68176 -1.65364,-1.51102 -5.74718,-5.45846 -5.38374,-5.05398 -4.92012,-5.47356 0.80111,-0.72499 3.85344,-1.98169 5.25085,-2.16163 z m -75.80313,0.017 1.28261,0.17054 c 1.9769,0.26275 5.72885,1.97824 5.72885,2.61947 0,0.126 -0.98227,1.1465 -2.18281,2.26808 -1.20055,1.12158 -2.74306,2.54747 -3.4277,3.1688 l -1.24488,1.13016 -0.078,-4.67878 z m 77.39063,0.0512 h 0.80202 c 0.44116,0 1.52193,0.24255 2.40192,0.53899 7.0823,2.38585 10.5945,9.88445 7.93388,16.93953 -1.05451,2.79623 -0.77548,2.84335 -4.98626,-0.84594 -2.87457,-2.51856 -3.73784,-3.4233 -3.75274,-3.93258 -0.0268,-0.91398 -0.94047,-2.33104 -1.73685,-2.69389 l -0.66197,-0.30127 v -4.85242 z m -66.54271,7.70754 0.32866,0.62477 c 1.10779,2.10311 0.88251,6.99642 -0.45423,9.8578 -0.42488,0.90951 -0.83206,1.65364 -0.90486,1.65364 -0.31942,0 -7.52271,-6.50927 -7.46621,-6.74687 0.0346,-0.14552 1.96061,-1.41745 4.27984,-2.8267 z m 54.27989,0.0765 c 1.07143,0.41115 8.27966,5.09618 8.22586,5.34645 -0.0352,0.16392 -1.63244,1.6692 -3.54914,3.34501 -1.9167,1.6758 -3.58627,3.10967 -3.71037,3.18637 -0.31762,0.1963 -1.26523,-1.5377 -1.77095,-3.24063 -0.83965,-2.82739 -0.26035,-9.04586 0.8046,-8.6372 z m -28.13626,2.50734 -1.65985,4.57802 c -0.91268,2.51767 -1.74239,4.73202 -1.84433,4.92115 -0.10807,0.20051 -0.76458,-1.23351 -1.57407,-3.43959 -0.76356,-2.0809 -1.57538,-4.28925 -1.80402,-4.90771 -0.35655,-0.96442 -0.52363,-1.12448 -1.17357,-1.12448 -0.96758,0 -0.98934,-0.15827 0.57154,4.14239 2.34442,6.45956 2.99226,8.1535 3.24786,8.49147 0.36395,0.48123 1.15757,0.40473 1.37253,-0.13229 0.10194,-0.25466 0.95818,-2.60615 1.90272,-5.22553 0.94454,-2.61936 1.75201,-4.79719 1.79421,-4.83949 0.0422,-0.0423 0.51935,1.14832 1.06092,2.64583 2.9731,8.2209 2.82317,7.88221 3.49694,7.88221 0.36183,0 0.6971,-0.19671 0.7891,-0.46302 0.088,-0.25466 0.4276,-1.1774 0.75499,-2.05053 1.54146,-4.11096 3.56619,-9.87116 3.56619,-10.14563 0,-0.16797 -0.34042,-0.30541 -0.75654,-0.30541 -0.74131,0 -0.79048,0.0948 -2.42517,4.69636 -0.9176,2.58299 -1.74302,4.78494 -1.83452,4.89324 -0.0915,0.1083 -0.95108,-1.97531 -1.90996,-4.63021 l -1.74356,-4.8271 -0.91571,-0.0796 z m 39.65287,0.29198 c 1.74033,0 2.73047,2.36509 1.52962,3.65404 -0.75311,0.80839 -2.3439,0.79165 -3.11867,-0.0331 -1.29803,-1.38168 -0.31535,-3.62096 1.58905,-3.62096 z m -77.73014,0.0284 c 0.50639,-0.0399 1.05701,0.10908 1.57923,0.51986 0.88944,0.69963 0.97708,2.34675 0.16795,3.15588 -0.80913,0.80913 -2.45625,0.72148 -3.15588,-0.16795 -1.23235,-1.56668 -0.11049,-3.38812 1.4087,-3.50779 z m 2.50838,4.19251 2.33164,2.05517 c 1.28221,1.1304 2.92643,2.62576 3.65404,3.32331 l 1.32291,1.26814 -1.05833,0.92914 c -1.37825,1.20954 -3.60883,2.34906 -5.61568,2.86908 -3.89187,1.00848 -8.31546,-0.0906 -11.30628,-2.80965 l -1.31155,-1.19269 0.91467,-0.79944 c 0.50304,-0.43978 2.15521,-1.87257 3.67161,-3.18378 l 2.75746,-2.38384 0.81442,0.49662 c 1.06114,0.64707 2.29343,0.63277 3.14451,-0.0367 z m 77.57511,0.008 3.56205,3.20703 c 1.95914,1.76401 3.56206,3.24583 3.56206,3.29283 0,0.047 -0.44649,0.50825 -0.99219,1.02474 -1.34301,1.2711 -3.59817,2.43725 -5.6472,2.92024 v -5.2e-4 c -2.9781,0.70199 -5.6591,0.37266 -8.60619,-1.0573 -1.398,-0.67833 -3.88656,-2.68554 -3.74964,-3.02462 0.0426,-0.10542 1.6599,-1.57444 3.59409,-3.2644 l 3.51658,-3.07268 0.84905,0.51728 c 1.08051,0.65885 1.94627,0.65545 3.04167,-0.0124 z m -21.98161,17.2191 -2.04948,0.82372 c -10.72947,4.31298 -22.43352,4.4169 -33.39642,0.29662 l -2.77089,-1.04128 -1.85931,1.5658 c -1.02247,0.86126 -2.97308,2.22392 -4.33514,3.02772 -1.82222,1.07535 -2.38142,1.52537 -2.11667,1.70429 4.37187,2.95448 14.59047,6.14177 22.1878,6.92051 7.08646,0.72637 16.46699,-0.43111 23.6802,-2.92179 2.74951,-0.94939 8.93751,-3.7848 9.20513,-4.21783 0.0843,-0.13644 -0.80411,-0.77552 -1.97456,-1.42058 -1.17046,-0.64507 -3.12794,-1.97519 -4.3496,-2.95538 z" /><path
           id="path47"
           style="display:inline;fill:#780001;fill-opacity:1"
           d="m 573.46347,253.81436 -35.98592,28.86491 a 3.4319077,3.4611404 0 0 1 0.6041,1.85983 l 0.002,0.10129 a 3.4319077,3.4611404 0 0 1 -0.0243,0.34365 c 0.25616,-0.26897 1.83321,-1.32552 4.00183,-2.64325 l 4.21679,-2.56264 0.0801,0.15193 4.64106,-2.83393 c -6.8e-4,-0.0202 -0.0515,-0.11774 -0.0444,-0.12403 0.0996,-0.0889 1.76859,-1.11013 9.21391,-5.63945 11.13632,-6.77474 13.17247,-7.99331 13.35784,-7.99331 z" /><path
           id="path46"
           style="fill:#780001;fill-opacity:1"
           d="m 580.39793,252.56534 -6.93446,1.24902 35.74045,28.84475 a 3.5312986,3.5312986 0 0 1 1.96423,-1.32601 l -0.002,-0.006 c -0.0364,-0.002 -0.78052,-0.68176 -1.65364,-1.51102 -0.66619,-0.63272 -0.59867,-0.58722 -1.11001,-1.0728 l -20.02617,-18.71927 c -0.0448,-0.0419 -0.0503,-0.0455 -0.0956,-0.0879 z" /><path
           id="path38"
           style="fill:#780001;fill-opacity:1"
           d="m 570.35468,162.66559 -0.0775,1.91823 c -0.0739,1.82263 -0.0489,1.91823 0.50332,1.91823 0.57425,0 0.57927,0.0355 0.4098,2.97656 -0.0943,1.63711 -0.17246,3.8993 -0.17312,5.02708 -0.001,1.98173 -0.0221,2.05052 -0.62942,2.05052 -0.70247,0 -0.95911,0.7465 -0.95911,2.79001 v 1.13637 l 1.65364,0.15761 c 0.9095,0.0866 2.36803,0.19275 3.24115,0.23565 0.87313,0.0429 2.78247,0.10065 4.24315,0.12815 l 2.65565,0.0496 1.22215,-1.25677 1.22163,-1.25677 0.18449,-3.20859 c 0.13302,-2.31221 0.0997,-3.26098 -0.11989,-3.39669 -0.22646,-0.13999 -0.21888,-0.29225 0.0305,-0.59273 0.20239,-0.24386 0.37293,-1.41508 0.42943,-2.95279 l 0.0935,-2.5492 -1.19837,-1.35185 -1.19786,-1.35186 -4.70824,-0.21239 c -2.58951,-0.11676 -5.1845,-0.22294 -5.76658,-0.23564 z m -7.52254,0.74879 -3.76618,0.55139 -3.76669,0.5519 -1.13275,1.46038 -1.13275,1.46089 0.90486,6.31486 c 0.49779,3.4732 1.0017,6.40245 1.11983,6.50968 0.11812,0.10722 0.79731,0.63279 1.50895,1.16737 0.96455,0.72457 1.46965,0.93712 1.98437,0.83613 0.37977,-0.0745 2.05962,-0.32983 3.73311,-0.56741 3.58802,-0.50937 3.13345,-0.29443 4.34185,-2.04897 l 0.9772,-1.41904 -0.8077,-5.59294 c -0.44403,-3.07633 -0.80718,-5.88239 -0.80718,-6.23579 0,-0.47746 -0.40531,-0.94433 -1.5782,-1.81591 z m 29.02665,1.233 c -0.63345,0.009 -0.94423,0.28952 -1.82779,0.85473 l -1.47071,0.94103 -1.51981,6.19445 -1.51928,6.19497 0.94309,1.5658 0.94361,1.56631 3.37964,0.84853 c 4.44084,1.11526 4.2123,1.14269 7.17114,-0.86042 0.12502,-0.0846 2.9596,-11.50889 3.0148,-12.15068 0.0254,-0.29484 -0.36463,-1.20785 -0.86661,-2.02881 l -0.91261,-1.49242 -3.57187,-0.85783 c -2.17404,-0.522 -3.13014,-0.78461 -3.7636,-0.77566 z m -16.60932,2.14974 1.91823,0.15193 c 2.61425,0.20699 3.60422,1.10735 2.25619,2.05155 -0.36261,0.25398 -1.09798,0.39976 -1.91823,0.38086 -2.14187,-0.0494 -2.25619,-0.12164 -2.25619,-1.42834 z m -29.69276,0.108 -5.03277,1.71669 c -6.36908,2.17238 -5.96996,1.86358 -5.24102,4.05402 0.52971,1.59175 0.64509,1.74844 1.18752,1.6123 0.66439,-0.16674 0.55368,-0.40591 2.7833,6.01256 1.22074,3.5142 1.19707,3.39927 0.68936,3.39927 -0.69913,0 -0.72379,0.53156 -0.1049,2.25723 0.33757,0.94126 0.66058,1.71152 0.71778,1.71152 0.0572,0 1.39727,-0.44648 2.9776,-0.99218 3.22803,-1.11467 3.18999,-1.06032 2.32802,-3.36414 -0.48702,-1.30172 -0.61633,-1.44829 -1.1591,-1.31206 -0.55233,0.13863 -0.66508,-0.006 -1.17151,-1.50534 -0.54684,-1.6193 -0.47996,-2.06778 0.31058,-2.08308 0.42409,-0.008 2.85003,2.48027 2.728,2.79828 -0.17811,0.46415 0.94832,3.81269 1.28261,3.81269 0.80941,0 5.98713,-1.94489 5.88543,-2.21072 -0.0638,-0.16663 -0.33174,-0.98744 -0.59532,-1.82418 -0.49082,-1.55814 -0.72927,-1.72284 -1.83761,-1.26658 -0.42568,0.17523 -0.8008,-0.0463 -1.91823,-1.13379 -1.53735,-1.49619 -1.61117,-1.64724 -0.89503,-1.83451 0.90823,-0.23751 1.99035,-3.04959 1.66243,-4.32015 -0.84261,-3.26473 -1.26205,-3.93358 -2.98122,-4.75526 z m 15.10864,0.93225 c 1.21395,0.10142 1.58212,1.07249 1.99161,3.84369 0.2349,1.58968 0.49774,3.31624 0.58394,3.83646 0.13767,0.83086 0.0542,1.03192 -0.68471,1.65364 -0.62395,0.52502 -1.12604,0.70519 -1.9451,0.69919 -1.90255,-0.0145 -2.09147,-0.33032 -2.72645,-4.56562 -0.64133,-4.27771 -0.47861,-4.96722 1.25212,-5.31337 0.62545,-0.12509 1.12394,-0.1878 1.52859,-0.15399 z m 45.95378,0.78341 c -0.28454,0.002 -2.42929,4.42179 -2.23707,4.60954 0.16721,0.16332 3.19386,1.47381 3.40393,1.47381 0.10517,0 0.29916,-0.2429 0.4315,-0.5395 0.2063,-0.46232 0.30758,-0.49014 0.71003,-0.19586 0.43952,0.32138 0.39613,0.49456 -0.67903,2.7218 -0.63159,1.30835 -1.55139,3.30595 -2.04432,4.43901 -0.84714,1.94728 -0.93485,2.05195 -1.60248,1.90531 -0.66188,-0.14537 -0.75377,-0.0433 -1.46245,1.62419 -0.41592,0.97866 -0.64049,1.81855 -0.49868,1.86655 0.1418,0.048 1.38896,0.62188 2.77141,1.27538 1.38244,0.65348 2.61041,1.18841 2.72852,1.18907 0.11812,6.5e-4 0.55598,-0.7426 0.97306,-1.6521 0.75002,-1.63552 0.75246,-1.65828 0.2341,-2.0624 -0.51257,-0.3996 -0.47915,-0.50606 1.52652,-4.83795 1.49901,-3.23759 2.16121,-4.40644 2.46135,-4.34444 0.26311,0.0544 0.38685,0.32275 0.34365,0.74724 -0.0575,0.56451 0.14861,0.76861 1.39474,1.37976 0.80429,0.39446 1.61922,0.71727 1.81126,0.71727 0.32468,0 2.48458,-4.40437 2.2562,-4.60075 -0.28018,-0.24091 -12.27924,-5.71793 -12.52224,-5.71593 z m -13.45757,0.43977 c 0.36875,-0.0377 0.81639,0.0463 1.39009,0.18965 2.10726,0.52654 2.24651,1.16986 1.17978,5.45393 -0.64982,2.60967 -1.04186,3.69661 -1.4547,4.0349 -0.94165,0.77161 -2.96069,0.42524 -3.75842,-0.64441 l -0.52917,-0.71003 0.71417,-2.99414 c 0.956,-4.00622 1.35199,-5.21671 2.45825,-5.3299 z m -49.18356,2.72541 c 0.45759,-0.0281 0.86978,0.0162 1.14825,0.1602 1.17538,0.60782 0.4746,1.76712 -1.42472,2.35696 -0.76587,0.23784 -1.54086,0.49461 -1.72186,0.57051 -0.30521,0.12799 -0.52931,-0.25478 -0.95912,-1.63711 -0.19674,-0.63278 1.58466,-1.36629 2.95745,-1.45056 z m 31.00689,1.59525 h 1.80609 c 2.73718,0 3.86274,1.48439 2.35748,3.10886 h -5.2e-4 c -0.43178,0.46597 -0.81455,0.58652 -1.76216,0.55552 -2.34338,-0.0767 -2.73315,-0.20455 -2.56264,-0.84026 0.0849,-0.3164 0.15561,-1.08117 0.15761,-1.69964 z m -52.08003,3.57343 c -0.19466,0.0724 -1.2067,0.73929 -2.24896,1.48156 -1.04226,0.74228 -2.78795,1.96737 -3.87934,2.72283 l -1.98438,1.37356 -0.36484,1.8402 -0.36483,1.84072 1.40973,2.05413 c 1.47067,2.14347 1.65728,2.2634 4.21473,2.70268 0.82007,0.14085 1.16513,-0.0115 3.01687,-1.3317 2.75733,-1.96585 4.39147,-1.81025 4.39147,0.41858 0,0.89829 -0.13585,1.09913 -1.32344,1.95233 -1.40931,1.01249 -1.83066,1.1304 -2.31252,0.64854 -0.28668,-0.28668 -0.60166,-0.12886 -3.33933,1.67329 -0.16692,0.10988 0.2908,1.01495 1.16737,2.30683 0.79325,1.1691 1.50178,2.12652 1.57458,2.12752 0.38014,0.006 3.03243,-2.0933 2.97243,-2.35231 -0.0387,-0.16697 0.097,-0.26809 0.30179,-0.22479 0.20474,0.0433 1.12932,-0.42485 2.05466,-1.04025 3.03076,-2.0156 3.13218,-2.13469 3.46387,-4.0752 l 0.29972,-1.75442 -1.834,-2.60139 -1.83451,-2.60139 -1.79421,-0.35657 -1.7942,-0.35657 -2.12442,1.4888 c -1.79264,1.25618 -2.24683,1.46232 -2.90266,1.31827 -1.29617,-0.28469 -0.96234,-1.52429 0.74207,-2.75694 1.1782,-0.85209 1.88383,-1.00695 2.37091,-0.51986 0.21277,0.21276 0.69779,-0.008 1.78956,-0.81443 l 1.49758,-1.10639 -0.45372,-0.70693 c -1.58725,-2.47236 -2.3939,-3.46893 -2.71198,-3.3507 z m 108.08798,4.97024 c -0.76826,0.29481 -2.39904,2.57275 -2.07429,2.8975 0.51991,0.51991 0.40352,0.78126 -3.16828,7.12049 l -3.47369,6.16603 1.68723,1.51412 1.68775,1.51412 0.81701,-0.48214 c 0.44938,-0.26514 1.12223,-0.68179 1.495,-0.92604 l 0.67799,-0.44442 -0.83302,1.62161 -0.83303,1.62109 1.5875,1.43402 c 0.87312,0.78848 1.6769,1.43376 1.78594,1.43402 0.10904,2.6e-4 2.8253,-1.68193 6.03633,-3.73827 5.16729,-3.30921 5.90836,-3.70704 6.44766,-3.46129 0.5392,0.24565 0.75402,0.13059 1.86552,-0.99787 0.6909,-0.70148 1.21211,-1.38118 1.15911,-1.5105 -0.0532,-0.12931 -1.09114,-1.18068 -2.30684,-2.3363 l -2.2102,-2.10116 -1.27279,1.45056 c -0.8952,1.02035 -1.19503,1.54367 -1.01183,1.76475 0.2341,0.2826 -2.27045,2.18439 -4.32325,3.283 -0.61067,0.32682 -0.61535,0.33785 1.31103,-3.02152 l 1.18701,-2.07016 -1.01389,-1.03869 c -1.18037,-1.20881 -1.51676,-1.25925 -2.76366,-0.41445 -3.20371,2.17058 -4.09422,2.65672 -3.66902,2.00298 0.22996,-0.35355 0.9251,-1.56963 1.54512,-2.70216 0.91416,-1.66975 1.19695,-2.00196 1.49397,-1.75545 0.29205,0.24237 0.6211,0.0207 1.62471,-1.09554 0.69228,-0.77 1.25852,-1.46866 1.25832,-1.55236 -10e-4,-0.42217 -4.38179,-4.30322 -4.71341,-4.17597 z m -123.96194,7.06675 -2.66754,2.83239 -2.66805,2.8329 v 1.72857 1.72858 l 4.56147,4.56665 4.56097,4.56716 h 1.87172 1.87172 l 2.69492,-2.76572 2.69545,-2.76573 v -1.79575 -1.79576 l -4.56097,-4.56664 -4.56148,-4.56665 h -1.8991 z m 1.865,4.69325 c 0.85358,-0.0368 1.83518,0.76305 3.71864,2.65359 3.00793,3.01928 3.25343,3.76401 1.74924,5.30252 -1.51751,1.55216 -2.30841,1.29396 -5.33145,-1.74046 -3.0307,-3.04211 -3.2686,-3.78278 -1.70223,-5.30097 0.58728,-0.56922 1.05365,-0.89259 1.5658,-0.91468 z m -12.20132,6.70709 -1.33481,2.03863 c -0.73409,1.12135 -1.33509,2.15853 -1.33583,2.30477 -7.3e-4,0.14623 0.71647,1.50173 1.59422,3.01222 0.87775,1.5105 1.53314,2.80923 1.45624,2.88613 -0.0769,0.0769 -1.42,0.002 -2.98483,-0.16795 -1.56482,-0.16951 -3.04188,-0.3082 -3.28197,-0.30799 -0.25698,2.2e-4 -0.98736,0.86861 -1.77612,2.11098 l -1.33997,2.11047 0.85008,0.63252 c 2.09544,1.55894 2.33096,1.65315 2.73833,1.09605 0.43935,-0.60084 0.23015,-0.70474 5.45393,2.70475 3.08872,2.01596 3.34641,2.2448 3.05304,2.71456 -0.3737,0.5984 -0.47121,0.48006 1.37925,1.68207 0.80037,0.51989 1.4884,0.9516 1.5291,0.9586 0.0874,0.0158 3.49798,-5.21566 3.49798,-5.36557 0,-0.17422 -2.88687,-2.02933 -3.15794,-2.02933 -0.14053,0 -0.36624,0.19808 -0.50178,0.44028 -0.21517,0.38448 -0.55209,0.24398 -2.6541,-1.10742 -1.32414,-0.8513 -2.37981,-1.57551 -2.34611,-1.60921 0.0628,-0.0628 3.87914,0.31206 5.41879,0.53227 1.16179,0.16617 1.11573,-0.0531 -0.6196,-2.96106 -0.81361,-1.3634 -1.43867,-2.51878 -1.38907,-2.56728 0.0496,-0.0485 1.12655,0.58757 2.39314,1.41335 1.81471,1.18313 2.25033,1.58497 2.05465,1.89445 -0.13657,0.216 -0.25018,0.48333 -0.25218,0.59428 -0.005,0.22609 2.76216,2.05127 3.0918,2.03967 0.23699,-0.008 3.63392,-5.26652 3.483,-5.3914 -0.0531,-0.0439 -0.80333,-0.52671 -1.66709,-1.0728 -1.45156,-0.9177 -1.59564,-0.95836 -1.90531,-0.53485 -0.43467,0.59445 -0.40664,0.60798 -4.95215,-2.35645 -3.59176,-2.3424 -3.86067,-2.57333 -3.55947,-3.05563 0.17918,-0.28698 0.2709,-0.56925 0.2036,-0.62735 -0.0673,-0.0581 -0.80088,-0.53468 -1.63039,-1.05885 z m 150.60424,1.50688 -5.3113,3.48144 -5.31131,3.48196 -0.32556,1.82108 -0.32556,1.82108 2.08049,3.18688 2.0805,3.18689 1.5968,0.37879 c 0.8782,0.20855 1.67763,0.38966 1.77663,0.40256 0.0989,0.0128 1.22995,-0.67133 2.51355,-1.52032 1.28359,-0.849 3.71057,-2.44048 5.39347,-3.53674 l 3.05976,-1.99316 0.34623,-1.83503 0.34623,-1.83555 -2.05775,-3.1166 c -2.1579,-3.26769 -2.39687,-3.4634 -4.57027,-3.75171 z m 0.63459,4.83537 c 0.78238,-0.10332 1.25194,0.3228 1.87534,1.21594 1.22939,1.76115 0.88091,2.34934 -2.88458,4.87206 -1.7225,1.15399 -3.2249,2.0822 -3.3383,2.0624 -0.1134,-0.0198 -0.4741,-0.0878 -0.8015,-0.15089 -0.3274,-0.0631 -0.93339,-0.61225 -1.34669,-1.2206 -1.2506,-1.84082 -0.91045,-2.43844 2.74195,-4.81986 1.87605,-1.22319 2.97139,-1.85574 3.75378,-1.95905 z m 11.16831,8.87749 c -0.12,-0.1334 -0.95372,0.0804 -1.92702,0.49403 -1.47339,0.62622 -1.70866,0.81894 -1.66966,1.36787 0.0419,0.58703 -0.32053,0.79117 -4.44573,2.50373 -2.46999,1.02542 -4.52519,1.7655 -4.56819,1.64486 -0.3351,-0.9495 -0.53197,-0.96832 -2.29237,-0.22014 -0.9598,0.40794 -1.74511,0.76126 -1.74511,0.78496 0,0.14006 2.33489,5.7398 2.43499,5.83995 0.1044,0.10442 3.35837,-1.10166 3.60547,-1.33635 0.0482,-0.0457 -0.0375,-0.31732 -0.19069,-0.60358 -0.4186,-0.78229 2.80018,-2.20738 3.33468,-1.4764 0.2868,0.39216 0.24829,0.56841 -0.25011,1.14154 -1.6016,1.84167 -2.1591,2.36474 -2.3766,2.23035 -0.2262,-0.13983 -3.02491,0.8487 -3.45561,1.2206 -0.1129,0.0974 0.3462,1.50073 1.0201,3.11867 l 1.22576,2.94194 1.33325,-0.52555 c 2.3077,-0.9096 2.30411,-0.90595 1.98851,-1.93425 -0.266,-0.86648 -0.21947,-0.97876 1.00563,-2.41277 1.1811,-1.38249 1.30474,-1.4603 1.52704,-0.96221 0.1386,0.31062 0.95744,0.84613 1.91874,1.2547 l 1.6769,0.71262 2.19212,-0.88057 c 2.63319,-1.05786 2.62162,-1.04771 3.39462,-2.96106 l 0.61495,-1.52135 -0.56379,-1.38907 c -2.8783,-7.09612 -3.60518,-8.8294 -3.78788,-9.03252 z m -173.56202,4.00131 c -0.32002,0.35401 -1.33154,3.30848 -1.18339,3.45663 0.0782,0.0782 -0.0266,0.3306 -0.23306,0.56069 -0.2065,0.23009 -0.79558,1.53671 -1.30896,2.9037 l -0.93328,2.48564 0.74259,1.63866 0.74311,1.63866 2.43034,0.94671 2.43034,0.94671 1.68155,-0.76274 c 1.54546,-0.70075 1.71925,-0.86461 2.14354,-2.02779 1.34957,-3.69985 1.99431,-4.41676 3.49746,-3.88813 1.64126,0.5772 1.18539,4.36969 -0.57981,4.82451 -0.70614,0.18195 -0.89719,0.43851 -1.42471,1.90996 -0.33507,0.93473 -0.51371,1.73629 -0.39688,1.78129 0.11683,0.045 1.04582,0.42183 2.06447,0.83716 2.59939,1.05985 2.6175,1.05556 3.27164,-0.73846 0.31054,-0.85169 0.56482,-1.67521 0.56482,-1.83038 0,-0.15516 0.17785,-0.61949 0.39533,-1.03146 0.21748,-0.41198 0.76787,-1.72452 1.22266,-2.91713 l 0.82682,-2.16886 -0.79065,-1.68931 -0.79064,-1.68982 -2.98535,-1.11414 -2.98535,-1.11466 -1.66915,0.72709 -1.66915,0.7276 -0.87075,2.34714 c -0.69374,1.87099 -1.02507,2.42936 -1.63297,2.74919 -0.63284,0.33295 -0.80192,0.3406 -0.99426,0.0455 -0.82,-1.25818 -0.0165,-3.90122 1.31,-4.30827 0.66772,-0.20488 0.90507,-0.50997 1.35599,-1.74666 0.30055,-0.82427 0.54622,-1.60787 0.54622,-1.74098 0,-0.33427 -4.55177,-2.00887 -4.77852,-1.75803 z m 171.47584,2.27169 c 0.51197,-0.0876 0.65331,0.31232 1.18701,1.88258 0.2833,0.83713 0.4002,1.66241 0.293,2.08927 -0.3644,1.45193 -1.83801,0.59437 -2.60811,-1.51773 -0.701,-1.9224 -0.73714,-1.75021 0.46406,-2.22932 0.28127,-0.11219 0.49338,-0.19559 0.66404,-0.2248 z m 8.34058,11.68663 c -0.3544,0.0203 -0.81597,0.0773 -1.29967,0.1664 -1.56209,0.28782 -1.75906,0.39191 -1.75906,0.92966 0,0.70843 -0.12136,0.74624 -5.81515,1.80195 -2.1069,0.39066 -3.86474,0.61356 -3.90674,0.49506 -0.3175,-0.89855 -0.51572,-0.95241 -2.28771,-0.61805 -2.0222,0.38156 -2.00119,0.32588 -1.35289,3.49385 0.7256,3.54611 0.47955,3.21008 2.19624,2.9962 1.8962,-0.23624 2.42586,-0.50917 2.25516,-1.16221 -0.1113,-0.42544 0.0831,-0.55199 1.22732,-0.79736 1.9559,-0.41948 2.3921,-0.37888 2.3921,0.2222 0,0.56867 -3.0472,3.08241 -3.2799,2.70578 -0.1468,-0.2375 -3.43741,0.22755 -3.73311,0.52762 -0.1599,0.16231 0.8334,5.66209 1.1033,6.10867 h 5.1e-4 c 0.1492,0.24677 0.14566,0.24665 2.07326,-0.15968 l 1.5875,-0.33435 -0.063,-1.04283 c -0.0613,-1.02214 -0.0187,-1.0758 2.15284,-2.67942 l 2.21536,-1.63608 2.57556,0.74621 c 2.65619,0.76969 3.0265,1.02705 3.0365,2.09186 0.003,0.5121 0.11095,0.59867 0.59945,0.48214 0.3274,-0.0781 1.16209,-0.22401 1.85518,-0.32401 0.693,-0.1 1.32454,-0.28604 1.40354,-0.41341 0.1147,-0.18549 -0.88574,-6.00038 -1.07694,-6.26008 -0.129,-0.17525 -3.65965,0.71272 -3.81165,0.9586 -0.1134,0.18354 -0.81193,0.0892 -2.08153,-0.28112 -1.6285,-0.47507 -1.91099,-0.64407 -1.91099,-1.1436 0,-0.48512 0.19378,-0.61685 1.12447,-0.76481 0.6185,-0.0983 1.38733,-0.24453 1.70843,-0.32453 0.4589,-0.11432 0.61884,-0.006 0.74724,0.50539 l 0.1633,0.65113 1.72857,-0.36226 c 1.8836,-0.39482 2.2739,-0.5559 2.0867,-0.85886 -0.0676,-0.10929 -0.32044,-1.38066 -0.56224,-2.82566 -0.2419,-1.445 -0.52804,-2.72291 -0.63614,-2.83962 -0.054,-0.0584 -0.30137,-0.0751 -0.65577,-0.0548 z m -182.84311,2.79724 -1.39888,0.92708 c -1.65179,1.09439 -1.70441,1.20642 -2.41742,5.1418 -0.69518,3.83705 -0.72421,3.49841 0.44287,5.17281 1.07295,1.53937 1.11287,1.55708 5.11751,2.23398 0.93247,0.15762 3.18379,0.56681 5.0028,0.9095 1.81901,0.3427 3.36678,0.63206 3.43958,0.64286 0.0728,0.0108 0.78713,-0.45347 1.5875,-1.03146 l 1.45521,-1.0511 0.70848,-3.76928 0.70797,-3.76876 -0.7891,-1.23662 c -1.18526,-1.85768 -1.18087,-1.856 -7.74474,-3.0546 z m 2.72697,4.67155 c 0.71225,0.0399 1.61083,0.16981 2.74143,0.37104 4.32007,0.76889 4.87922,1.14354 4.62091,3.09748 -0.11387,0.86129 -0.3691,1.41649 -0.84181,1.83142 -0.80271,0.70458 -0.9197,0.7023 -5.00693,-0.0786 -3.51284,-0.67111 -4.10827,-1.05442 -4.10827,-2.64583 0,-2.00492 0.4579,-2.69526 2.59467,-2.57556 z m 165.94904,10.92182 -0.01,1.78593 c -0.003,0.98227 -0.0768,3.27435 -0.16381,5.09375 l -0.15865,3.30833 1.32395,1.38802 1.32447,1.38855 h 3.26233 3.26285 l 1.26556,-1.24695 1.26607,-1.24695 v -2.44223 c 0,-2.21047 0.0615,-2.51353 0.64596,-3.18534 l 0.64544,-0.74207 0.54828,0.54002 c 0.9472,0.93279 0.84081,4.35477 -0.13539,4.35477 -0.2983,0 -0.38137,0.433 -0.38137,1.98438 v 1.98437 h 2.5032 2.50373 l 0.01,-5.25756 0.0103,-5.25756 -1.30948,-1.22473 -1.30948,-1.22473 h -2.40812 -2.40864 l -1.43919,1.36115 -1.4397,1.36116 v 2.52439 c 0,2.84683 -0.45219,3.74913 -1.87999,3.74913 -1.7025,0 -2.62582,-3.69583 -1.16272,-4.6545 0.6065,-0.39754 0.66146,-0.5952 0.66146,-2.38745 v -1.95388 h -2.51355 z m -171.20919,1.29914 -1.31309,1.30638 -1.3131,1.30587 v 3.92224 3.92224 l 1.24695,1.26555 1.24644,1.26608 h 6.5226 6.52208 l 1.2268,-1.31155 1.2268,-1.31207 v -3.83284 -3.83335 l -1.36943,-1.34824 -1.36994,-1.34824 -1.87121,0.077 -1.87172,0.077 -0.0775,1.91822 c -0.0759,1.87163 -0.0623,1.91823 0.55914,1.91823 1.766,0 2.76371,3.02354 1.45676,4.41472 -0.55008,0.58557 -0.7435,0.61237 -4.41472,0.61237 -4.65388,0 -5.06429,-0.20411 -5.06429,-2.51871 0,-1.51462 0.4309,-2.12205 1.75751,-2.47685 0.73943,-0.19776 0.75603,-0.24218 0.75603,-2.03502 v -1.83296 l -1.92805,-0.078 z" /><path
           id="path40"
           style="fill:#780001;fill-opacity:1;stroke-width:0.264583"
           d="m 655.27036,284.40578 c -1.22104,0.0982 -2.41824,0.61769 -3.32538,1.59783 -2.2997,2.48477 -1.57677,6.77925 1.38855,8.24704 4.58325,2.26864 9.17817,-2.33102 7.00061,-7.00784 -0.92845,-1.99407 -3.02872,-3.00062 -5.06378,-2.83703 z m -165.51754,2.22415 c -0.54112,0.0728 -1.09185,0.23527 -1.63918,0.50023 -3.76154,1.8209 -3.78797,7.39796 -0.0444,9.37152 2.49259,1.31406 6.05376,0.0469 7.13393,-2.53835 1.65246,-3.95487 -1.66245,-7.84311 -5.45031,-7.3334 z m 24.94266,23.82025 -1.79059,1.85467 -1.79059,1.85467 1.37615,1.37666 c 1.24039,1.24038 1.42993,1.34287 1.91616,1.03921 0.54962,-0.34324 1.04696,-0.23124 1.04696,0.23564 0,0.14232 -1.45851,1.84801 -3.24114,3.79047 -3.00096,3.27001 -3.27546,3.50168 -3.70417,3.12436 -0.53441,-0.47037 -0.95252,-0.19077 -2.35334,1.57561 l -0.7736,0.97565 2.19211,2.12546 c 1.20546,1.16916 2.25551,2.12971 2.33371,2.13371 0.0782,0.004 0.73087,-0.58966 1.45004,-1.31981 1.18074,-1.19877 1.27459,-1.38032 0.96738,-1.87224 -0.37979,-0.60815 -0.0792,-1.01058 4.13309,-5.52938 1.86576,-2.00154 2.14277,-2.20708 2.53628,-1.8805 0.39442,0.32733 0.39908,0.41366 0.0434,0.80667 -0.36079,0.39867 -0.27934,0.55741 0.86248,1.68207 0.69336,0.68292 1.39187,1.24178 1.55236,1.24178 0.1605,0 1.02727,-0.80367 1.92598,-1.78594 l 1.63401,-1.78594 -1.9389,-1.85208 c -1.06637,-1.01865 -3.38769,-3.18828 -5.15834,-4.82141 z m 114.02043,2.63137 -3.17397,2.97656 c -3.026,2.83784 -3.17443,3.02621 -3.18533,4.04471 -0.01,0.93603 0.14938,1.22691 1.28881,2.34921 l 1.30069,1.28055 1.34514,-1.15859 c 1.20536,-1.0383 1.32872,-1.2432 1.19114,-1.97662 -0.13636,-0.72685 -0.012,-0.94255 1.11053,-1.93063 1.55354,-1.36749 2.57034,-1.42837 2.69234,-0.16124 0.0651,0.67575 -0.20044,1.06789 -1.78594,2.6386 l -1.86241,1.84485 v 1.86552 1.86552 l 2.93212,3.10265 c 1.61269,1.7064 3.03312,3.10266 3.15639,3.10266 0.19936,0 2.04282,-1.69744 7.63985,-7.0342 l 1.6893,-1.61127 -1.79989,-1.90789 -1.80041,-1.90842 -1.40508,1.38752 c -1.25307,1.2375 -1.36339,1.43347 -1.02009,1.81281 0.34372,0.37981 0.20148,0.60687 -1.3255,2.12028 l -1.70998,1.69499 -0.92914,-0.90072 c -1.48343,-1.43779 -1.32236,-2.10116 1.05575,-4.34651 l 1.98489,-1.8743 -5.1e-4,-1.69034 -10e-4,-1.68982 -1.74356,-1.9482 -1.74356,-1.94768 h -1.95027 z m -102.22683,8.20208 c -0.082,0 -0.59361,0.73141 -1.13689,1.62574 -0.89568,1.47445 -0.94676,1.65631 -0.54828,1.94768 0.2417,0.17673 0.43439,0.42708 0.42839,0.55656 -0.0202,0.43488 -4.9609,8.17374 -5.18831,8.12664 -0.12362,-0.0256 -0.40339,-0.11397 -0.62167,-0.19637 -0.37384,-0.14106 -2.23136,2.52292 -2.16886,3.1104 0.013,0.12196 2.38134,1.68768 5.26325,3.47989 2.88191,1.79222 5.2997,3.27004 5.3728,3.28404 0.17784,0.034 2.64531,-4.02993 2.64531,-4.35684 0,-0.24973 -2.66742,-1.96732 -3.05511,-1.96732 -0.10674,0 -0.33948,0.19867 -0.51728,0.44183 -0.29485,0.40323 -0.44841,0.36567 -1.74873,-0.4284 -0.78412,-0.47884 -1.47199,-0.91246 -1.52859,-0.96376 -0.15056,-0.13652 1.63403,-3.01842 1.86914,-3.01842 0.10961,0 1.10325,0.54877 2.20813,1.21956 1.10488,0.67079 2.04713,1.17678 2.09393,1.12448 0.21386,-0.23887 2.00143,-3.12582 2.00143,-3.23236 0,-0.0659 -0.9525,-0.67815 -2.11667,-1.36064 -2.403,-1.40879 -2.29308,-1.23961 -1.56579,-2.41639 0.66952,-1.08331 0.49273,-1.08643 2.24844,0.0367 1.28102,0.81946 1.41731,0.99018 1.16789,1.45624 -0.25104,0.46906 -0.0985,0.64391 1.37097,1.57303 0.90941,0.575 1.67219,1.02137 1.69499,0.99167 0.0228,-0.0297 0.64986,-1.03041 1.3932,-2.22415 l 1.35133,-2.17093 -2.3089,-1.4273 c -6.53458,-4.04036 -8.46827,-5.21157 -8.60412,-5.21157 z m 92.445,0.67851 c -0.26646,-0.16469 -3.20342,1.65986 -3.20342,1.99006 0,0.13562 0.66947,1.28704 1.48776,2.55902 2.11231,3.28349 2.2164,3.45819 2.2164,3.71915 0,0.2323 -2.51301,1.90118 -2.86287,1.90118 -0.10014,0 -1.06815,-1.41898 -2.15077,-3.1533 l -1.96836,-3.1533 -1.01027,0.57361 c -0.5558,0.3155 -1.30415,0.81174 -1.66295,1.10278 l -0.65268,0.52916 2.93213,4.63021 c 1.61255,2.54662 3.02308,4.72756 3.13469,4.84674 0.11161,0.11918 1.38861,-0.55001 2.83755,-1.48725 3.94443,-2.55147 3.64387,-2.45901 4.33772,-1.33635 0.54786,0.88646 0.55992,0.98657 0.15296,1.28415 -0.59046,0.43176 -0.58501,0.45282 0.52969,2.13166 0.66738,1.00515 1.09536,1.41465 1.36942,1.30948 0.54563,-0.20937 5.06791,-3.0864 5.06791,-3.22409 0,-0.10332 -1.80429,-3.00356 -2.01021,-3.23133 -0.0516,-0.0571 -0.28913,0.0585 -0.52814,0.25683 -0.37862,0.31423 -0.51558,0.25951 -1.0635,-0.4253 -0.74203,-0.92741 -0.78975,-1.33288 -0.19533,-1.66553 0.38584,-0.21593 0.3224,-0.43222 -0.54829,-1.86552 -1.07466,-1.76909 -1.03183,-1.73542 -1.73116,-1.36115 -0.42267,0.22621 -0.72995,-0.13169 -2.37712,-2.77038 -1.0405,-1.66684 -1.98593,-3.08933 -2.10116,-3.16053 z m -12.41216,7.18199 c -0.19113,-0.0112 -0.42813,0.0733 -0.73639,0.20206 -0.51211,0.21398 -3.06232,1.23593 -5.66684,2.27118 l -4.73563,1.88205 0.48938,1.23403 c 1.6061,4.05141 1.25286,3.80291 3.83284,2.697 1.06555,-0.45674 1.202,-0.60363 1.06505,-1.14929 -0.14006,-0.55805 -0.005,-0.68378 1.25005,-1.1653 1.64757,-0.63214 1.80223,-0.58646 1.81023,0.53692 0.003,0.46435 0.23861,2.39221 0.52296,4.28397 0.69269,4.60841 0.68532,4.84813 -0.15916,5.1692 -0.51046,0.19391 -0.64031,0.38108 -0.50333,0.7214 0.10169,0.25264 0.42996,1.09007 0.72967,1.86087 0.29971,0.77081 0.67496,1.34501 0.83406,1.27641 1.6912,-0.72954 5.74834,-2.281 5.96449,-2.281 0.4036,0 0.3275,-0.46475 -0.36793,-2.24896 -0.34032,-0.87312 -0.75112,-1.55775 -0.91261,-1.52135 -0.1615,0.0364 -0.43732,0.0959 -0.6134,0.13229 -0.21906,0.0453 -0.45996,-0.97807 -0.76274,-3.24115 -0.24337,-1.81901 -0.64182,-4.78624 -0.88522,-6.59339 -0.42285,-3.13943 -0.58208,-4.03335 -1.15548,-4.06694 z m -64.71078,1.06609 c -0.72236,0.008 -0.76732,0.58184 -1.18959,1.73271 -0.67949,1.85164 -0.67831,1.68334 -0.006,1.85932 0.65885,0.17229 0.87612,-0.2521 -2.4877,4.85655 -2.42551,3.68362 -2.69177,3.99518 -3.23701,3.78788 -0.54311,-0.20649 -0.64075,-0.0967 -1.13637,1.27796 -0.2982,0.82707 -0.57905,1.66586 -0.62425,1.86397 -0.0744,0.32621 4.86808,2.41794 5.71335,2.41794 0.46955,0 1.58844,-3.47402 1.19682,-3.71606 -0.62972,-0.38918 -0.038,-1.1181 0.74931,-0.92294 2.40287,0.59566 3.59635,1.69824 2.22777,2.05776 -0.38068,0.10001 -1.79978,3.29862 -1.56683,3.53157 0.0417,0.0417 1.38305,0.54251 2.98018,1.11311 3.25678,1.16354 3.01435,1.23551 3.82613,-1.12397 0.49235,-1.43097 0.49161,-1.43184 -0.0729,-1.8066 l -0.56431,-0.37518 0.47388,-5.00124 c 0.26065,-2.75081 0.57604,-5.89422 0.70125,-6.98562 0.26338,-2.2957 0.33814,-2.17071 -1.72445,-2.90318 -3.13503,-1.1133 -4.53608,-1.67148 -5.25911,-1.66398 z m 50.61034,4.03799 c -0.6278,3e-5 -11.38867,2.06574 -11.53779,2.21485 -0.0424,0.0424 0.13919,1.13869 0.40307,2.43655 l 0.47956,2.36006 0.90899,-0.0243 c 2.03136,-0.0544 2.89285,-0.3578 2.89285,-1.01802 0,-0.70349 0.21911,-0.82361 1.98075,-1.08779 l 1.25419,-0.1881 -0.15348,1.55597 c -0.0845,0.85574 -0.22891,3.18598 -0.32091,5.1785 l -0.16743,3.62303 -0.7674,0.16847 c -0.42209,0.0927 -0.76739,0.27214 -0.76739,0.39894 0,0.26446 0.51739,2.88601 0.65732,3.33055 0.0766,0.24343 6.55619,-0.78474 6.96909,-1.10588 0.0471,-0.0366 -0.0784,-0.88163 -0.27906,-1.8774 -0.32872,-1.63129 -0.42616,-1.80802 -0.98391,-1.78542 l -0.61909,0.0253 0.17415,-3.33262 c 0.0957,-1.83282 0.25003,-5.02873 0.34313,-7.1024 l 0.1695,-3.77032 z m -36.7068,0.47853 -0.17622,1.54667 c -0.0969,0.85065 -0.23367,1.75504 -0.30437,2.0097 -0.0751,0.27073 0.0163,0.46464 0.22014,0.46664 0.99549,0.0116 1.02174,0.28954 0.47904,5.03742 -0.29014,2.53837 -0.52761,4.70484 -0.52761,4.81417 0,0.1093 -0.28901,0.19896 -0.64234,0.19896 -0.58566,0 -0.65792,0.13443 -0.81546,1.52135 -0.0951,0.83674 -0.19244,1.69531 -0.21704,1.90789 -0.0509,0.44034 0.91197,0.65466 4.21525,0.93948 l 2.14405,0.185 0.16847,-1.02009 c 0.32596,-1.97304 0.22108,-2.77754 -0.38189,-2.93522 -0.58464,-0.15287 -0.59298,-0.85319 -0.0568,-4.81728 l 0.15916,-1.17564 1.09296,2.9838 c 0.60116,1.64106 1.20764,3.00342 1.34772,3.02772 0.14009,0.0243 0.75478,-0.72946 1.36581,-1.67535 0.61103,-0.94588 1.36816,-2.07698 1.68258,-2.51354 l 0.57154,-0.79375 -0.16898,1.98438 c -0.27899,3.26942 -0.37717,3.61167 -1.02681,3.59047 -0.51381,-0.0168 -0.59928,0.17171 -0.80564,1.77871 -0.127,0.9887 -0.16966,1.85861 -0.0951,1.93321 0.0746,0.0746 1.36924,0.29416 2.87683,0.48783 1.5076,0.19367 2.88446,0.36549 3.05976,0.38189 0.17531,0.0164 0.37727,-0.35698 0.44907,-0.82993 0.41046,-2.70536 0.42275,-3.10898 0.0951,-3.11298 -0.97956,-0.0119 -1.03666,-0.33818 -0.62942,-3.59255 0.21683,-1.73284 0.47318,-3.89434 0.56948,-4.80384 0.15961,-1.50759 0.22969,-1.65365 0.79426,-1.65365 0.62526,0 0.82122,-0.61777 1.00253,-3.15794 0.0515,-0.72085 -0.41197,-0.87817 -3.44631,-1.17099 l -1.64021,-0.15813 -1.90892,2.92695 -1.90841,2.92695 -1.08986,-2.99826 c -1.38448,-3.81028 -1.17746,-3.56099 -3.11712,-3.76876 -0.91276,-0.0978 -2.03678,-0.24374 -2.49752,-0.32453 z m -11.67887,2.62981 c 0.12692,-0.0976 0.16709,0.0335 0.20154,0.33125 0.0421,0.3638 -0.0174,1.08905 -0.1323,1.61178 -0.19595,0.89174 -0.25273,0.93564 -0.92294,0.71004 l -0.71468,-0.24081 0.84697,-1.37098 c 0.38103,-0.61725 0.59449,-0.94367 0.72141,-1.04128 z" /><path
           id="path44"
           style="fill:#780001;fill-opacity:1;stroke-width:0.264583"
           d="m 570.95768,217.75817 -0.008,0.0176 -5.00538,35.30585 7.51944,0.73277 -0.17002,-35.21594 a 4.1540956,4.1540956 0 0 1 -2.33577,-0.84025 z" /></g></g></g></svg>
